# Blender v2.93.6 OBJ File: ''
# www.blender.org
mtllib glass wall.mtl
o ì‹¤ë¦°ë”
v 0.000000 -0.011635 -3.118295
v 0.000000 6.224956 -3.118295
v 0.608349 -0.011635 -3.058378
v 0.608349 6.224956 -3.058378
v 1.193320 -0.011635 -2.880929
v 1.193320 6.224956 -2.880929
v 1.732432 -0.011635 -2.592768
v 1.732432 6.224956 -2.592768
v 2.204968 -0.011635 -2.204968
v 2.204968 6.224956 -2.204968
v 2.592768 -0.011635 -1.732432
v 2.592768 6.224956 -1.732432
v 2.880929 -0.011635 -1.193320
v 2.880929 6.224956 -1.193320
v 3.058378 -0.011635 -0.608349
v 3.058378 6.224956 -0.608349
v 3.118295 -0.011635 0.000000
v 3.118295 6.224956 0.000000
v 3.058378 -0.011635 0.608349
v 3.058378 6.224956 0.608349
v 2.880929 -0.011635 1.193320
v 2.880929 6.224956 1.193320
v 2.592768 -0.011635 1.732432
v 2.592768 6.224956 1.732432
v 2.204968 -0.011635 2.204968
v 2.204968 6.224956 2.204968
v 1.732432 -0.011635 2.592768
v 1.732432 6.224956 2.592768
v 1.193320 -0.011635 2.880929
v 1.193320 6.224956 2.880929
v 0.608349 -0.011635 3.058378
v 0.608349 6.224956 3.058378
v -0.000000 -0.011635 3.118295
v -0.000000 6.224956 3.118295
v -0.608349 -0.011635 3.058378
v -0.608349 6.224956 3.058378
v -1.193320 -0.011635 2.880929
v -1.193320 6.224956 2.880929
v -1.732432 -0.011635 2.592768
v -1.732432 6.224956 2.592768
v -2.204968 -0.011635 2.204968
v -2.204968 6.224956 2.204968
v -2.592767 -0.011635 1.732433
v -2.592767 6.224956 1.732433
v -2.880929 -0.011635 1.193320
v -2.880929 6.224956 1.193320
v -3.058378 -0.011635 0.608349
v -3.058378 6.224956 0.608349
v -3.118295 -0.011635 -0.000000
v -3.118295 6.224956 -0.000000
v -3.058378 -0.011635 -0.608350
v -3.058378 6.224956 -0.608350
v -2.880929 -0.011635 -1.193321
v -2.880929 6.224956 -1.193321
v -2.592768 -0.011635 -1.732432
v -2.592768 6.224956 -1.732432
v -2.204968 -0.011635 -2.204967
v -2.204968 6.224956 -2.204967
v -1.732432 -0.011635 -2.592768
v -1.732432 6.224956 -2.592768
v -1.193320 -0.011635 -2.880929
v -1.193320 6.224956 -2.880929
v -0.608349 -0.011635 -3.058378
v -0.608349 6.224956 -3.058378
v -1.675107 -0.011635 -2.506974
v 2.506974 -0.011635 1.675106
v 2.506974 6.224956 1.675106
v -1.153833 -0.011635 -2.785600
v 2.132006 -0.011635 2.132006
v 2.132006 6.224956 2.132006
v -2.785600 6.224956 -1.153834
v -2.506974 6.224956 -1.675106
v 2.957177 -0.011635 -0.588219
v 3.015112 -0.011635 0.000000
v -3.015112 6.224956 -0.000000
v 2.785600 -0.011635 1.153833
v -2.957177 6.224956 -0.588219
v 1.675106 -0.011635 2.506974
v 1.675106 6.224956 2.506974
v -2.785600 6.224956 1.153834
v -2.506974 6.224956 1.675107
v 1.153834 -0.011635 2.785600
v 1.153834 6.224956 2.785600
v 2.785600 -0.011635 -1.153833
v -2.132006 6.224956 2.132006
v 2.506974 -0.011635 -1.675107
v -1.675107 6.224956 2.506974
v 2.132006 -0.011635 -2.132006
v 0.588219 -0.011635 2.957178
v 0.588219 6.224956 2.957178
v -1.675107 6.224956 -2.506974
v -1.153833 6.224956 -2.785600
v 1.153833 -0.011635 -2.785600
v 1.675107 -0.011635 -2.506974
v -0.000000 -0.011635 3.015112
v -0.000000 6.224956 3.015112
v -0.588219 -0.011635 2.957178
v 2.957177 6.224956 -0.588219
v 3.015112 6.224956 0.000000
v 2.785600 6.224956 1.153833
v -0.588219 6.224956 2.957178
v -1.153833 -0.011635 2.785600
v -1.153833 6.224956 2.785600
v 2.785600 6.224956 -1.153833
v 2.132006 6.224956 -2.132006
v 2.506974 6.224956 -1.675107
v 2.957177 -0.011635 0.588219
v 0.588219 -0.011635 -2.957177
v 1.153833 6.224956 -2.785600
v 1.675107 6.224956 -2.506974
v -1.675107 -0.011635 2.506974
v -2.957177 -0.011635 0.588219
v -2.132006 -0.011635 2.132006
v -2.132006 -0.011635 -2.132006
v -2.506974 -0.011635 1.675107
v 0.000000 -0.011635 -3.015112
v -0.588219 -0.011635 -2.957178
v 0.000000 6.224956 -3.015112
v -2.785600 -0.011635 1.153834
v 2.957177 6.224956 0.588219
v 0.588219 6.224956 -2.957177
v -2.957177 6.224956 0.588219
v -2.132006 6.224956 -2.132006
v -3.015112 -0.011635 -0.000000
v -0.588219 6.224956 -2.957178
v -2.957177 -0.011635 -0.588219
v -2.506974 -0.011635 -1.675106
v -2.785600 -0.011635 -1.153834
vt 1.000000 0.500000
vt 1.000000 1.000000
vt 0.968750 1.000000
vt 0.968750 0.500000
vt 0.937500 1.000000
vt 0.937500 0.500000
vt 0.906250 1.000000
vt 0.906250 0.500000
vt 0.875000 1.000000
vt 0.875000 0.500000
vt 0.843750 1.000000
vt 0.843750 0.500000
vt 0.812500 1.000000
vt 0.812500 0.500000
vt 0.781250 1.000000
vt 0.781250 0.500000
vt 0.750000 1.000000
vt 0.750000 0.500000
vt 0.718750 1.000000
vt 0.718750 0.500000
vt 0.687500 1.000000
vt 0.687500 0.500000
vt 0.656250 1.000000
vt 0.656250 0.500000
vt 0.625000 1.000000
vt 0.625000 0.500000
vt 0.593750 1.000000
vt 0.593750 0.500000
vt 0.562500 1.000000
vt 0.562500 0.500000
vt 0.531250 1.000000
vt 0.531250 0.500000
vt 0.500000 1.000000
vt 0.500000 0.500000
vt 0.468750 1.000000
vt 0.468750 0.500000
vt 0.437500 1.000000
vt 0.437500 0.500000
vt 0.406250 1.000000
vt 0.406250 0.500000
vt 0.375000 1.000000
vt 0.375000 0.500000
vt 0.343750 1.000000
vt 0.343750 0.500000
vt 0.312500 1.000000
vt 0.312500 0.500000
vt 0.281250 1.000000
vt 0.281250 0.500000
vt 0.250000 1.000000
vt 0.250000 0.500000
vt 0.218750 1.000000
vt 0.218750 0.500000
vt 0.187500 1.000000
vt 0.187500 0.500000
vt 0.156250 1.000000
vt 0.156250 0.500000
vt 0.125000 1.000000
vt 0.125000 0.500000
vt 0.093750 1.000000
vt 0.093750 0.500000
vt 0.062500 1.000000
vt 0.062500 0.500000
vt 0.085910 0.085910
vt 0.080294 0.080294
vt 0.116663 0.050447
vt 0.158156 0.028269
vt 0.203178 0.014612
vt 0.250000 0.010000
vt 0.296822 0.014612
vt 0.341844 0.028269
vt 0.383337 0.050447
vt 0.419706 0.080294
vt 0.449553 0.116663
vt 0.471731 0.158156
vt 0.485388 0.203178
vt 0.490000 0.250000
vt 0.485388 0.296822
vt 0.471731 0.341844
vt 0.449553 0.383337
vt 0.419706 0.419706
vt 0.414090 0.414090
vt 0.442950 0.378925
vt 0.464394 0.338805
vt 0.477600 0.295272
vt 0.482058 0.250000
vt 0.477599 0.204728
vt 0.464394 0.161195
vt 0.442950 0.121075
vt 0.414090 0.085910
vt 0.378925 0.057050
vt 0.338805 0.035606
vt 0.295272 0.022400
vt 0.250000 0.017942
vt 0.204728 0.022400
vt 0.161195 0.035606
vt 0.121075 0.057050
vt 0.383337 0.449553
vt 0.341844 0.471731
vt 0.296822 0.485388
vt 0.250000 0.490000
vt 0.203178 0.485388
vt 0.158156 0.471731
vt 0.116663 0.449553
vt 0.080294 0.419706
vt 0.050447 0.383337
vt 0.028269 0.341844
vt 0.014612 0.296822
vt 0.010000 0.250000
vt 0.014612 0.203178
vt 0.028269 0.158156
vt 0.050447 0.116663
vt 0.057050 0.121075
vt 0.035606 0.161195
vt 0.022400 0.204728
vt 0.017942 0.250000
vt 0.022400 0.295273
vt 0.035606 0.338805
vt 0.057050 0.378925
vt 0.085910 0.414090
vt 0.121075 0.442950
vt 0.161195 0.464394
vt 0.204728 0.477600
vt 0.250000 0.482059
vt 0.295273 0.477600
vt 0.338805 0.464394
vt 0.378925 0.442950
vt 0.031250 1.000000
vt 0.031250 0.500000
vt 0.000000 1.000000
vt 0.000000 0.500000
vt 0.914090 0.414090
vt 0.919706 0.419706
vt 0.949553 0.383337
vt 0.971731 0.341844
vt 0.985388 0.296822
vt 0.990000 0.250000
vt 0.985388 0.203178
vt 0.971731 0.158156
vt 0.949553 0.116663
vt 0.919706 0.080294
vt 0.914090 0.085910
vt 0.942950 0.121075
vt 0.964394 0.161195
vt 0.977600 0.204728
vt 0.982059 0.250000
vt 0.977600 0.295273
vt 0.964394 0.338805
vt 0.942950 0.378925
vt 0.883337 0.050447
vt 0.841844 0.028269
vt 0.796822 0.014612
vt 0.750000 0.010000
vt 0.703178 0.014612
vt 0.658156 0.028269
vt 0.616663 0.050447
vt 0.580294 0.080294
vt 0.550447 0.116663
vt 0.528269 0.158156
vt 0.514612 0.203178
vt 0.510000 0.250000
vt 0.514612 0.296822
vt 0.528269 0.341844
vt 0.550447 0.383337
vt 0.580294 0.419706
vt 0.616663 0.449553
vt 0.658156 0.471731
vt 0.703178 0.485388
vt 0.750000 0.490000
vt 0.796822 0.485388
vt 0.841844 0.471731
vt 0.883337 0.449553
vt 0.878925 0.442950
vt 0.838805 0.464394
vt 0.795272 0.477600
vt 0.750000 0.482059
vt 0.704728 0.477600
vt 0.661195 0.464394
vt 0.621075 0.442950
vt 0.585910 0.414090
vt 0.557050 0.378925
vt 0.535606 0.338805
vt 0.522400 0.295272
vt 0.517941 0.250000
vt 0.522400 0.204728
vt 0.535606 0.161195
vt 0.557050 0.121075
vt 0.585910 0.085910
vt 0.621075 0.057050
vt 0.661195 0.035606
vt 0.704728 0.022400
vt 0.750000 0.017942
vt 0.795272 0.022400
vt 0.838805 0.035606
vt 0.878925 0.057050
vt 1.000000 0.815349
vt 1.000000 0.684651
vt 0.968750 0.684651
vt 0.968750 0.815349
vt 0.937500 0.684651
vt 0.937500 0.815349
vt 0.906250 0.684651
vt 0.906250 0.815349
vt 0.875000 0.684651
vt 0.875000 0.815349
vt 0.843750 0.684651
vt 0.843750 0.815349
vt 0.812500 0.684651
vt 0.812500 0.815349
vt 0.781250 0.684651
vt 0.781250 0.815349
vt 0.750000 0.684651
vt 0.750000 0.815349
vt 0.718750 0.684651
vt 0.718750 0.815349
vt 0.687500 0.684651
vt 0.687500 0.815349
vt 0.656250 0.684651
vt 0.656250 0.815349
vt 0.625000 0.684651
vt 0.625000 0.815349
vt 0.593750 0.684651
vt 0.593750 0.815349
vt 0.562500 0.684651
vt 0.562500 0.815349
vt 0.531250 0.815349
vt 0.531250 0.684651
vt 0.500000 0.684651
vt 0.500000 0.815349
vt 0.468750 0.684651
vt 0.468750 0.815349
vt 0.437500 0.684651
vt 0.437500 0.815349
vt 0.406250 0.815349
vt 0.406250 0.684651
vt 0.375000 0.815349
vt 0.375000 0.684651
vt 0.343750 0.684651
vt 0.343750 0.815349
vt 0.312500 0.684651
vt 0.312500 0.815349
vt 0.281250 0.684651
vt 0.281250 0.815349
vt 0.250000 0.684651
vt 0.250000 0.815349
vt 0.218750 0.684651
vt 0.218750 0.815349
vt 0.187500 0.684651
vt 0.187500 0.815349
vt 0.156250 0.684651
vt 0.156250 0.815349
vt 0.125000 0.684651
vt 0.125000 0.815349
vt 0.093750 0.684651
vt 0.093750 0.815349
vt 0.062500 0.684651
vt 0.062500 0.815349
vt 0.031250 0.684651
vt 0.031250 0.815349
vt 0.000000 0.684651
vt 0.000000 0.815349
vn 0.0980 0.0000 -0.9952
vn 0.2903 0.0000 -0.9569
vn 0.4714 0.0000 -0.8819
vn 0.6344 0.0000 -0.7730
vn 0.7730 0.0000 -0.6344
vn 0.8819 0.0000 -0.4714
vn 0.9569 0.0000 -0.2903
vn 0.9952 0.0000 -0.0980
vn 0.9952 0.0000 0.0980
vn 0.9569 0.0000 0.2903
vn 0.8819 0.0000 0.4714
vn 0.7730 0.0000 0.6344
vn 0.6344 0.0000 0.7730
vn 0.4714 0.0000 0.8819
vn 0.2903 0.0000 0.9569
vn 0.0980 0.0000 0.9952
vn -0.0980 0.0000 0.9952
vn -0.2903 0.0000 0.9569
vn -0.4714 0.0000 0.8819
vn -0.6344 0.0000 0.7730
vn -0.7730 0.0000 0.6344
vn -0.8819 0.0000 0.4714
vn -0.9569 0.0000 0.2903
vn -0.9952 0.0000 0.0980
vn -0.9952 0.0000 -0.0980
vn -0.9569 0.0000 -0.2903
vn -0.8819 0.0000 -0.4714
vn -0.7730 0.0000 -0.6344
vn -0.6344 0.0000 -0.7730
vn -0.4714 0.0000 -0.8819
vn 0.0000 1.0000 -0.0000
vn -0.2903 0.0000 -0.9569
vn -0.0980 0.0000 -0.9952
vn 0.0000 -1.0000 -0.0000
usemtl None
s off
f 1/1/1 2/2/1 4/3/1 3/4/1
f 3/4/2 4/3/2 6/5/2 5/6/2
f 5/6/3 6/5/3 8/7/3 7/8/3
f 7/8/4 8/7/4 10/9/4 9/10/4
f 9/10/5 10/9/5 12/11/5 11/12/5
f 11/12/6 12/11/6 14/13/6 13/14/6
f 13/14/7 14/13/7 16/15/7 15/16/7
f 15/16/8 16/15/8 18/17/8 17/18/8
f 17/18/9 18/17/9 20/19/9 19/20/9
f 19/20/10 20/19/10 22/21/10 21/22/10
f 21/22/11 22/21/11 24/23/11 23/24/11
f 23/24/12 24/23/12 26/25/12 25/26/12
f 25/26/13 26/25/13 28/27/13 27/28/13
f 27/28/14 28/27/14 30/29/14 29/30/14
f 29/30/15 30/29/15 32/31/15 31/32/15
f 31/32/16 32/31/16 34/33/16 33/34/16
f 33/34/17 34/33/17 36/35/17 35/36/17
f 35/36/18 36/35/18 38/37/18 37/38/18
f 37/38/19 38/37/19 40/39/19 39/40/19
f 39/40/20 40/39/20 42/41/20 41/42/20
f 41/42/21 42/41/21 44/43/21 43/44/21
f 43/44/22 44/43/22 46/45/22 45/46/22
f 45/46/23 46/45/23 48/47/23 47/48/23
f 47/48/24 48/47/24 50/49/24 49/50/24
f 49/50/25 50/49/25 52/51/25 51/52/25
f 51/52/26 52/51/26 54/53/26 53/54/26
f 53/54/27 54/53/27 56/55/27 55/56/27
f 55/56/28 56/55/28 58/57/28 57/58/28
f 57/58/29 58/57/29 60/59/29 59/60/29
f 59/60/30 60/59/30 62/61/30 61/62/30
f 85/63/31 42/64/31 40/65/31 38/66/31 36/67/31 34/68/31 32/69/31 30/70/31 28/71/31 26/72/31 24/73/31 22/74/31 20/75/31 18/76/31 16/77/31 14/78/31 12/79/31 10/80/31 105/81/31 106/82/31 104/83/31 98/84/31 99/85/31 120/86/31 100/87/31 67/88/31 70/89/31 79/90/31 83/91/31 90/92/31 96/93/31 101/94/31 103/95/31 87/96/31
f 105/81/31 10/80/31 8/97/31 6/98/31 4/99/31 2/100/31 64/101/31 62/102/31 60/103/31 58/104/31 56/105/31 54/106/31 52/107/31 50/108/31 48/109/31 46/110/31 44/111/31 42/64/31 85/63/31 81/112/31 80/113/31 122/114/31 75/115/31 77/116/31 71/117/31 72/118/31 123/119/31 91/120/31 92/121/31 125/122/31 118/123/31 121/124/31 109/125/31 110/126/31
f 61/62/32 62/61/32 64/127/32 63/128/32
f 63/128/33 64/127/33 2/129/33 1/130/33
f 88/131/34 9/132/34 11/133/34 13/134/34 15/135/34 17/136/34 19/137/34 21/138/34 23/139/34 25/140/34 69/141/34 66/142/34 76/143/34 107/144/34 74/145/34 73/146/34 84/147/34 86/148/34
f 69/141/34 25/140/34 27/149/34 29/150/34 31/151/34 33/152/34 35/153/34 37/154/34 39/155/34 41/156/34 43/157/34 45/158/34 47/159/34 49/160/34 51/161/34 53/162/34 55/163/34 57/164/34 59/165/34 61/166/34 63/167/34 1/168/34 3/169/34 5/170/34 7/171/34 9/132/34 88/131/34 94/172/34 93/173/34 108/174/34 116/175/34 117/176/34 68/177/34 65/178/34 114/179/34 127/180/34 128/181/34 126/182/34 124/183/34 112/184/34 119/185/34 115/186/34 113/187/34 111/188/34 102/189/34 97/190/34 95/191/34 89/192/34 82/193/34 78/194/34
f 118/195/17 116/196/17 108/197/17 121/198/17
f 93/199/18 109/200/18 121/198/18 108/197/18
f 109/200/19 93/199/19 94/201/19 110/202/19
f 110/202/20 94/201/20 88/203/20 105/204/20
f 88/203/21 86/205/21 106/206/21 105/204/21
f 86/205/22 84/207/22 104/208/22 106/206/22
f 84/207/23 73/209/23 98/210/23 104/208/23
f 73/209/24 74/211/24 99/212/24 98/210/24
f 74/211/25 107/213/25 120/214/25 99/212/25
f 107/213/26 76/215/26 100/216/26 120/214/26
f 76/215/27 66/217/27 67/218/27 100/216/27
f 67/218/28 66/217/28 69/219/28 70/220/28
f 70/220/29 69/219/29 78/221/29 79/222/29
f 79/222/30 78/221/30 82/223/30 83/224/30
f 90/225/32 83/224/32 82/223/32 89/226/32
f 90/225/33 89/226/33 95/227/33 96/228/33
f 96/228/1 95/227/1 97/229/1 101/230/1
f 97/229/2 102/231/2 103/232/2 101/230/2
f 87/233/3 103/232/3 102/231/3 111/234/3
f 85/235/4 87/233/4 111/234/4 113/236/4
f 115/237/5 81/238/5 85/235/5 113/236/5
f 119/239/6 80/240/6 81/238/6 115/237/6
f 112/241/7 122/242/7 80/240/7 119/239/7
f 124/243/8 75/244/8 122/242/8 112/241/8
f 126/245/9 77/246/9 75/244/9 124/243/9
f 128/247/10 71/248/10 77/246/10 126/245/10
f 127/249/11 72/250/11 71/248/11 128/247/11
f 114/251/12 123/252/12 72/250/12 127/249/12
f 123/252/13 114/251/13 65/253/13 91/254/13
f 91/254/14 65/253/14 68/255/14 92/256/14
f 92/256/15 68/255/15 117/257/15 125/258/15
f 125/258/16 117/257/16 116/259/16 118/260/16
